PathFileType	4	(X/Y/Z)	C:\Users\Basilio\Documents\Thesis Gigler\squatting_fais\c3dfiles\058\SLS_back_pre1\markers_experimental.trc
DataRate	CameraRate	NumFrames	NumMarkers	Units	OrigDataRate	OrigDataStartFrame	OrigNumFrames
200.000000	200.000000	4	60	mm	200.000000	455	1215
Frame#	Time	FHD			LBHD			RBHD			C7			T10			CLAV			LSHO			LUUPA			LMUPA			LDUPA			LLEP			LMEP			LUL			LRFIN			RSHO			RUPA1			RMUPA			RDUPA			RLEP			RMEP			RRAD			RUL			RUFIN			LASI			RASI			USACR			LSACR			RSACR			LTHI1			LTHI2			LTHI3			LTHI4			LLFC			LMFC			LTIB1			LTIB2			LTIB3			LTIB4			LLMAL			LMMAL			LHEE			LMT1			LMT5			RTHI			RTHI2			RTHI3			RTHI4			RLFC			RMFC			RTIB1			RTIB2			RTIB3			RTIB4			RLMAL			RMMAL			RHEE			RMT1			RMT2			RMT5			LMT2			
		X1	Y1	Z1	X2	Y2	Z2	X3	Y3	Z3	X4	Y4	Z4	X5	Y5	Z5	X6	Y6	Z6	X7	Y7	Z7	X8	Y8	Z8	X9	Y9	Z9	X10	Y10	Z10	X11	Y11	Z11	X12	Y12	Z12	X13	Y13	Z13	X14	Y14	Z14	X15	Y15	Z15	X16	Y16	Z16	X17	Y17	Z17	X18	Y18	Z18	X19	Y19	Z19	X20	Y20	Z20	X21	Y21	Z21	X22	Y22	Z22	X23	Y23	Z23	X24	Y24	Z24	X25	Y25	Z25	X26	Y26	Z26	X27	Y27	Z27	X28	Y28	Z28	X29	Y29	Z29	X30	Y30	Z30	X31	Y31	Z31	X32	Y32	Z32	X33	Y33	Z33	X34	Y34	Z34	X35	Y35	Z35	X36	Y36	Z36	X37	Y37	Z37	X38	Y38	Z38	X39	Y39	Z39	X40	Y40	Z40	X41	Y41	Z41	X42	Y42	Z42	X43	Y43	Z43	X44	Y44	Z44	X45	Y45	Z45	X46	Y46	Z46	X47	Y47	Z47	X48	Y48	Z48	X49	Y49	Z49	X50	Y50	Z50	X51	Y51	Z51	X52	Y52	Z52	X53	Y53	Z53	X54	Y54	Z54	X55	Y55	Z55	X56	Y56	Z56	X57	Y57	Z57	X58	Y58	Z58	X59	Y59	Z59	X60	Y60	Z60	

456	2.275	-197.1694030761719	1720.062377929688	-624.9439086914064	-356.3229370117188	1678.21484375	-699.1259155273439	-183.7318420410157	1724.257690429688	-766.8308715820314	-376.2135009765626	1519.361572265625	-712.9413452148439	-414.537322998047	1219.983764648438	-704.9640502929689	-219.0244445800782	1466.108642578125	-694.0974731445314	-230.9403228759766	1520.77685546875	-846.8410644531252	-72.53554534912111	1455.060546875	-943.589294433594	-50.13119888305665	1491.953002929688	-916.561462402344	-3.821855068206788	1455.959838867188	-930.031677246094	69.45572662353517	1460.620971679688	-907.6105957031252	71.44386291503908	1405.252319335938	-872.6157226562502	334.6514282226563	1497.346801757813	-866.8662109375002	427.8091125488282	1497.979614257813	-785.0289306640627	-251.7408905029297	1521.8017578125	-545.0325927734376	-92.55442810058595	1435.798095703125	-447.733856201172	-71.32203674316408	1474.213989257813	-473.0820617675782	-23.89178466796875	1444.581665039063	-453.4163818359376	43.74857711791993	1437.00048828125	-466.6592712402345	47.43717956542969	1377.745727539063	-517.7458496093751	296.9331054687501	1470.26708984375	-569.0422363281251	310.2655639648438	1483.20947265625	-497.132781982422	396.0884399414064	1504.6142578125	-569.8717651367189	-265.7599182128907	1004.726318359375	-849.7690429687502	-256.0362548828126	992.6599731445315	-608.6606445312501	-443.2405395507814	1102.211791992188	-704.1448364257814	-452.9085693359376	1072.969360351563	-733.5079956054689	-448.6340637207032	1069.531494140625	-675.6109008789064	-318.2220458984376	735.6214599609376	-947.2398071289065	-287.0033874511719	655.9951171875001	-954.7982177734377	-241.7595977783204	653.5035400390626	-934.7697753906252	-315.2770690917969	603.4520263671876	-956.3189697265627	-334.6560974121094	522.6719970703126	-953.604675292969	-308.4061279296876	483.7192993164064	-829.785339355469	-420.4353942871095	419.427459716797	-933.3532714843752	-479.5907287597657	476.544158935547	-961.4383544921877	-474.6405334472657	433.0021057128907	-957.5457153320315	-548.7222290039064	401.3324584960939	-930.657897949219	-747.0017700195314	423.3965454101564	-906.5806884765627	-723.6059570312501	360.4835510253907	-841.4595336914065	-742.4851684570314	457.642791748047	-828.9213867187502	-839.395202636719	263.6279296875001	-882.3233642578127	-859.423767089844	343.4127807617188	-951.3138427734377	-308.5220642089844	781.9812011718752	-545.2186279296876	-255.1157836914063	741.8415527343751	-549.1082153320314	-224.2631530761719	750.8001708984376	-552.4533081054689	-256.7054138183594	661.0087890625001	-572.9275512695314	-203.5941162109376	500.3108520507814	-606.7072143554689	-175.3810424804688	508.2466430664064	-738.2059936523439	-216.4532318115235	319.3546752929688	-719.3118896484376	-276.5096435546876	249.2295379638672	-657.1390991210939	-248.3824920654297	238.2409667968751	-694.6763305664064	-273.9414062500001	205.453109741211	-734.6312255859376	-366.2276916503907	115.9132461547852	-698.3499145507814	-333.8375244140626	142.3658905029297	-784.4033813476565	-439.0068664550782	103.7084426879883	-764.4121093750001	-228.6203155517579	61.4719581604004	-774.5584716796877	-225.476303100586	57.17991638183595	-722.3272705078126	-274.9943542480469	25.63039779663087	-672.1972656250001	-847.2574462890627	277.7251586914063	-926.7054443359377	
457	2.28	-196.7962341308594	1718.604614257813	-624.8930053710939	-355.4781188964844	1676.965698242188	-699.4395141601564	-183.1803436279297	1722.992431640625	-766.9530639648439	-375.7807617187501	1518.014770507813	-712.8960571289064	-414.5182495117189	1218.834716796875	-705.0419311523439	-218.4915313720704	1464.767944335938	-694.0646972656251	-230.7431335449219	1519.332885742188	-846.827331542969	-72.01976013183595	1453.884643554688	-943.5654907226565	-49.76339721679689	1490.813232421875	-916.6812133789065	-3.375964879989625	1454.625	-930.185729980469	69.7339553833008	1459.627807617188	-907.6188964843752	72.39890289306642	1404.677612304688	-873.107360839844	334.9999694824219	1496.4423828125	-866.777770996094	428.1691284179689	1497.021240234375	-784.937683105469	-251.1903991699219	1520.76611328125	-545.0079345703126	-92.25000000000001	1434.526245117188	-447.9310913085939	-71.15663146972658	1472.911010742188	-472.8094177246095	-23.53060150146485	1443.529663085938	-453.3057556152345	44.10087203979493	1435.976806640625	-466.5433044433595	47.84778213500977	1376.623413085938	-517.7260131835939	297.3963317871094	1469.041137695313	-569.2929077148439	309.9562072753907	1481.753051757813	-497.4368591308595	396.6878356933595	1503.415771484375	-569.8143310546876	-265.9246215820313	1003.551147460938	-849.6915283203127	-255.767562866211	991.5252075195315	-608.7501220703126	-443.0379638671876	1101.169677734375	-703.9892578125001	-452.8659667968751	1072.017822265625	-733.4985961914064	-448.6250915527345	1068.489013671875	-675.5325927734376	-318.5108337402344	734.3642578125001	-947.2349853515627	-287.4085998535157	654.8027954101564	-954.7971801757815	-241.9242401123047	652.4191284179689	-934.752380371094	-315.6430969238282	602.5104370117189	-956.3557128906252	-335.1707153320313	521.6969604492189	-953.6326904296877	-308.4354858398438	482.6424865722657	-829.9095458984377	-421.2418823242189	418.4158935546876	-933.2940673828127	-479.7860107421876	475.5382690429689	-961.4572753906252	-475.0810546875001	431.8816528320314	-957.6550903320315	-549.1177978515626	400.5307922363282	-930.732116699219	-747.4167480468751	422.4566955566407	-906.5076293945315	-723.7651367187501	359.5834960937501	-841.6375122070315	-742.7371826171876	457.0641174316407	-828.8418579101565	-839.519470214844	262.6427307128907	-882.311706542969	-859.9104614257815	342.3947143554688	-951.1520996093752	-308.2077331542969	780.6643066406252	-545.3521728515626	-254.1946411132813	741.1968383789064	-549.4368286132814	-223.7291259765626	750.0868530273439	-552.6876831054689	-255.6390533447266	660.0838623046876	-573.3231201171876	-202.061019897461	500.0404357910157	-606.9872436523439	-174.4784393310547	507.9697875976564	-738.5206298828126	-215.5889434814454	319.0857238769532	-719.7187500000001	-275.8346557617188	249.2755584716797	-657.3483886718751	-247.9237976074219	237.8253784179688	-694.9176025390626	-273.7531433105469	205.1266326904297	-734.7805786132814	-366.1461486816407	115.9599761962891	-698.3467407226564	-333.7287292480469	142.3415222167969	-784.4985961914065	-439.0103759765626	103.6606826782227	-764.3836059570314	-227.7311553955079	61.29222106933595	-774.1066894531252	-225.4860534667969	57.1412925720215	-722.3886108398439	-275.0320434570313	25.57115554809571	-672.2441406250001	-855.5645751953127	273.1556701660157	-920.853210449219	
458	2.285	-196.4055786132813	1717.412963867188	-625.0376586914064	-354.8641052246094	1675.776611328125	-699.4440917968751	-182.5999145507813	1721.590576171875	-767.0211181640626	-375.2916564941407	1516.841552734375	-713.0255737304689	-414.2975463867189	1217.807983398438	-704.9386596679689	-218.1243286132813	1463.611572265625	-694.1542968750001	-230.2645416259766	1518.135009765625	-846.9578857421877	-71.69231414794923	1452.572021484375	-943.6611328125002	-49.39667129516603	1489.605102539063	-916.667175292969	-3.125853300094605	1453.533935546875	-930.1567993164065	70.27840423583986	1458.45361328125	-907.7390747070315	72.97866821289064	1403.041870117188	-873.2595214843752	335.4012451171876	1495.356323242188	-866.7312011718752	428.4963989257814	1495.972290039063	-784.8500976562502	-251.0832672119141	1519.3759765625	-545.2088623046876	-92.22845458984376	1433.351684570313	-447.6689453125001	-70.78689575195314	1471.919677734375	-472.9444274902345	-23.08264350891114	1442.40771484375	-453.3185424804689	44.32804107666016	1434.810668945313	-466.5287475585939	48.11169052124025	1375.399047851563	-517.5720825195314	297.2670898437501	1468.092407226563	-568.8767700195314	310.7125244140626	1481.084594726563	-497.1571350097657	396.678192138672	1502.41455078125	-569.9276733398439	-266.1776428222657	1002.100891113281	-849.7198486328127	-256.0192260742188	990.1570434570315	-608.5461425781251	-443.172088623047	1100.18359375	-704.1260375976564	-452.9754333496095	1070.679931640625	-733.3667602539064	-448.7811584472657	1067.348266601563	-675.5764770507814	-318.7439270019532	733.3394775390626	-947.252868652344	-287.5234069824219	653.7159423828126	-954.8435668945315	-242.2507629394532	651.0571289062501	-935.0457763671877	-315.9440307617188	601.1723632812501	-956.3875122070315	-334.8905334472657	520.1091308593751	-953.8869628906252	-308.7648620605469	481.4017333984376	-829.9389648437502	-421.4136352539064	417.686248779297	-933.3212890625002	-480.1239624023439	474.4095153808595	-961.5122070312502	-475.3323059082032	430.9020385742189	-957.6867675781252	-549.7036743164064	399.3996582031251	-930.9788208007815	-747.7420043945314	421.4447631835939	-906.395935058594	-724.1455078125001	358.4629516601563	-841.5136718750002	-743.0240478515626	455.843231201172	-828.8863525390627	-839.7275390625002	261.8739318847657	-881.9438476562502	-860.6523437500002	342.0822448730469	-950.9173583984377	-308.0292968750001	779.6569824218752	-545.2912597656251	-253.7930603027344	740.2616577148439	-549.4599609375001	-223.4722137451172	749.6558837890626	-552.6359252929689	-255.0869140625001	659.3174438476564	-573.3485107421876	-200.6539001464844	499.5795288085939	-607.1813354492189	-173.3144989013672	507.4095458984376	-738.9391479492189	-214.9037170410157	318.6270751953126	-720.0170288085939	-275.2220458984376	248.9101562500001	-657.5772705078126	-247.5632019042969	237.3865051269532	-695.0064697265626	-273.5346374511719	204.8574981689454	-734.8767700195314	-366.0715637207032	116.0238342285157	-698.3836059570314	-333.6354370117188	142.4218139648438	-784.5668945312502	-438.9695434570314	103.7590408325196	-764.3692626953126	-227.7519226074219	61.20381546020509	-774.1107177734377	-225.473129272461	57.14237213134767	-722.3944702148439	-275.0111083984376	25.64125633239747	-672.2260131835939	-848.2724609375002	275.6470031738282	-926.450866699219	
459	2.29	-195.8381958007813	1716.11865234375	-625.0469360351564	-354.3126525878907	1674.38720703125	-699.7113647460939	-181.9561614990235	1720.365844726563	-767.0564575195314	-374.7842102050782	1515.710083007813	-713.0438232421876	-414.2261352539064	1216.667236328125	-704.9882202148439	-217.5761108398438	1462.247802734375	-694.1828002929689	-229.7748260498047	1516.732788085938	-846.8430175781252	-71.2909622192383	1451.412841796875	-943.687438964844	-49.00606155395509	1488.467529296875	-916.872741699219	-2.532595157623291	1452.224487304688	-930.3332519531252	70.63018035888673	1457.249633789063	-907.7502441406252	73.1316604614258	1402.03515625	-873.2241821289065	335.8890991210938	1494.392700195313	-866.7239379882815	428.9713134765626	1495.01123046875	-784.677185058594	-250.5543212890626	1518.5556640625	-545.1843872070314	-91.84177398681642	1432.4208984375	-447.6951599121095	-70.53970336914064	1470.772216796875	-473.1438293457032	-22.72529411315918	1441.379516601563	-453.337371826172	44.49919891357423	1433.618286132813	-466.5700988769532	48.37594223022462	1374.426879882813	-517.6318359375001	298.3715820312501	1467.074951171875	-569.6573486328126	310.9180603027344	1480.082763671875	-497.162567138672	397.5686645507814	1501.497680664063	-570.1131591796876	-266.2810363769532	1000.893249511719	-849.6243896484377	-256.1361999511719	988.920104980469	-608.5438232421876	-443.3030395507814	1098.841674804688	-703.9161376953126	-452.9939880371095	1069.822631835938	-733.3474731445314	-448.8706970214845	1066.27294921875	-675.4500732421876	-319.2687988281251	732.0670166015626	-947.2301025390627	-287.9404907226563	652.4364013671876	-954.7337036132815	-242.6784667968751	650.0112915039064	-935.0882568359377	-316.0984802246094	600.1445922851564	-956.455993652344	-335.2201843261719	518.9898681640626	-953.9168090820315	-309.1396789550782	480.1811828613282	-829.8815917968752	-422.8587951660157	416.5586547851564	-932.431091308594	-480.2910766601564	473.367889404297	-961.3894653320315	-475.5918579101564	429.8426208496095	-957.5272216796877	-549.8204956054689	398.4056701660157	-930.9416503906252	-748.0142822265626	420.5032043457032	-906.2470703125002	-724.4331665039064	357.7059326171876	-841.4476318359377	-743.2979125976564	455.0125732421876	-828.7951660156252	-840.0181884765627	261.0116882324219	-881.8411865234377	-861.2407226562502	341.0769958496094	-950.6485595703127	-307.4341430664063	778.5566406250002	-545.5236206054689	-253.1582336425782	739.7496337890626	-549.7282104492189	-222.6710357666016	749.1871948242189	-552.8156738281251	-254.1209106445313	658.3919677734376	-573.6767578125001	-199.1976623535157	498.9114990234376	-607.5266723632814	-172.0826110839844	506.8930053710939	-739.1980590820314	-214.1853942871094	317.9997863769532	-720.2328491210939	-274.5798034667969	248.7989807128907	-657.7361450195314	-247.2531433105469	236.8989410400391	-695.2096557617189	-273.3369750976563	204.5615844726563	-734.9849853515626	-366.0310974121094	115.9713745117188	-698.4472045898439	-333.5452880859376	142.3312225341797	-784.6482543945315	-438.9986877441407	103.7327651977539	-764.4131469726564	-228.5484619140626	61.37759399414064	-774.6442871093752	-225.5681762695313	56.99480438232423	-722.3654785156251	-274.9783935546876	25.64264106750489	-672.2125854492189	-848.821228027344	275.0013732910157	-926.1253051757815	
